<svg xmlns="http://www.w3.org/2000/svg" viewBox="0 0 1100 450" width="1100" height="450" font-family="Segoe UI,Helvetica,Arial,sans-serif">
<defs><marker id="ah" viewBox="0 0 10 10" refX="9" refY="5" markerWidth="7" markerHeight="7" orient="auto-start-reverse"><path d="M0,0 L10,5 L0,10 z" fill="#94a3b8"/></marker><filter id="sh" x="-20%" y="-20%" width="140%" height="160%"><feDropShadow dx="0" dy="2" stdDeviation="3" flood-color="#0f172a" flood-opacity="0.08"/></filter></defs>
<rect x="0" y="0" width="1100" height="450" rx="18" fill="#ffffff" stroke="#e2e8f0" stroke-width="1.5"/>
<rect x="0" y="0" width="1100" height="78" rx="18" fill="#f8fafc"/>
<rect x="0" y="60" width="1100" height="18" fill="#f8fafc"/>
<rect x="0" y="76" width="1100" height="2" fill="#e2e8f0"/>
<rect x="34" y="26" width="6" height="26" rx="3" fill="#0d9488"/>
<text x="54" y="40" font-size="22" font-weight="800" fill="#0f172a">Demand / Sales Forecasting</text>
<text x="54" y="60" font-size="13" fill="#64748b">How it works — end-to-end flow</text>
<rect x="958" y="28" width="108" height="26" rx="13" fill="#0d9488" opacity="0.12"/>
<text x="1012.0" y="45" font-size="12.5" font-weight="700" fill="#0d9488" text-anchor="middle">Data Science</text>
<rect x="34" y="106" width="210" height="98" rx="13" fill="#ffffff" stroke="#e2e8f0" stroke-width="1.5" filter="url(#sh)"/>
<rect x="34" y="106" width="6" height="98" rx="3" fill="#2563eb"/>
<text x="56" y="140" font-family="Segoe UI,Helvetica,Arial,sans-serif" font-size="16" font-weight="700" fill="#0f172a">Sales History</text>
<text x="56" y="162" font-family="Segoe UI,Helvetica,Arial,sans-serif" font-size="12.5" fill="#64748b">daily demand,</text>
<text x="56" y="180" font-family="Segoe UI,Helvetica,Arial,sans-serif" font-size="12.5" fill="#64748b">seasonality</text>
<rect x="308" y="106" width="210" height="98" rx="13" fill="#ffffff" stroke="#e2e8f0" stroke-width="1.5" filter="url(#sh)"/>
<rect x="308" y="106" width="6" height="98" rx="3" fill="#0d9488"/>
<text x="330" y="140" font-family="Segoe UI,Helvetica,Arial,sans-serif" font-size="16" font-weight="700" fill="#0f172a">Feature Build</text>
<text x="330" y="162" font-family="Segoe UI,Helvetica,Arial,sans-serif" font-size="12.5" fill="#64748b">calendar &amp;</text>
<text x="330" y="180" font-family="Segoe UI,Helvetica,Arial,sans-serif" font-size="12.5" fill="#64748b">lag features</text>
<rect x="582" y="106" width="210" height="98" rx="13" fill="#ffffff" stroke="#e2e8f0" stroke-width="1.5" filter="url(#sh)"/>
<rect x="582" y="106" width="6" height="98" rx="3" fill="#7c3aed"/>
<text x="604" y="140" font-family="Segoe UI,Helvetica,Arial,sans-serif" font-size="16" font-weight="700" fill="#0f172a">Model Bake-off</text>
<text x="604" y="162" font-family="Segoe UI,Helvetica,Arial,sans-serif" font-size="12.5" fill="#64748b">SARIMA / ETS /</text>
<text x="604" y="180" font-family="Segoe UI,Helvetica,Arial,sans-serif" font-size="12.5" fill="#64748b">LightGBM</text>
<rect x="856" y="106" width="210" height="98" rx="13" fill="#ffffff" stroke="#e2e8f0" stroke-width="1.5" filter="url(#sh)"/>
<rect x="856" y="106" width="6" height="98" rx="3" fill="#0d9488"/>
<text x="878" y="140" font-family="Segoe UI,Helvetica,Arial,sans-serif" font-size="16" font-weight="700" fill="#0f172a">Backtest</text>
<text x="878" y="162" font-family="Segoe UI,Helvetica,Arial,sans-serif" font-size="12.5" fill="#64748b">28-day holdout,</text>
<text x="878" y="180" font-family="Segoe UI,Helvetica,Arial,sans-serif" font-size="12.5" fill="#64748b">honest baseline</text>
<line x1="250" y1="155.0" x2="302" y2="155.0" stroke="#94a3b8" stroke-width="2.2" marker-end="url(#ah)"/>
<line x1="524" y1="155.0" x2="576" y2="155.0" stroke="#94a3b8" stroke-width="2.2" marker-end="url(#ah)"/>
<line x1="798" y1="155.0" x2="850" y2="155.0" stroke="#94a3b8" stroke-width="2.2" marker-end="url(#ah)"/>
<line x1="961.0" y1="210" x2="961.0" y2="276" stroke="#94a3b8" stroke-width="2.2" marker-end="url(#ah)"/>
<rect x="856" y="282" width="210" height="98" rx="13" fill="#ffffff" stroke="#e2e8f0" stroke-width="1.5" filter="url(#sh)"/>
<rect x="856" y="282" width="6" height="98" rx="3" fill="#16a34a"/>
<text x="878" y="316" font-family="Segoe UI,Helvetica,Arial,sans-serif" font-size="16" font-weight="700" fill="#0f172a">Forecast + Error</text>
<text x="878" y="338" font-family="Segoe UI,Helvetica,Arial,sans-serif" font-size="12.5" fill="#64748b">MAPE 3.27%</text>
<text x="878" y="356" font-family="Segoe UI,Helvetica,Arial,sans-serif" font-size="12.5" fill="#64748b">+ intervals</text>
<text x="34" y="408" font-size="12" font-weight="700" fill="#64748b">STACK</text>
<rect x="90" y="393" width="189" height="22" rx="11" fill="#0d9488" opacity="0.10"/>
<text x="184" y="408" font-size="11.5" font-weight="600" fill="#0d9488" text-anchor="middle">statsmodels (SARIMA/ETS)</text>
<rect x="288.8" y="393" width="74" height="22" rx="11" fill="#0d9488" opacity="0.10"/>
<text x="326" y="408" font-size="11.5" font-weight="600" fill="#0d9488" text-anchor="middle">LightGBM</text>
<rect x="372.4" y="393" width="110" height="22" rx="11" fill="#0d9488" opacity="0.10"/>
<text x="427" y="408" font-size="11.5" font-weight="600" fill="#0d9488" text-anchor="middle">Prophet (opt)</text>
<rect x="492.0" y="393" width="81" height="22" rx="11" fill="#0d9488" opacity="0.10"/>
<text x="532" y="408" font-size="11.5" font-weight="600" fill="#0d9488" text-anchor="middle">Streamlit</text>
</svg>